PathFileType	4	(X/Y/Z)	C:\Users\°ÂÌØÂü\Desktop\20210112\bx_n_10_1801-Unnamed.trc
DataRate	CameraRate	NumFrames	NumMarkers	Units	OrigDataRate	OrigDataStartFrame	OrigNumFrames
50.00	50.00	       8	0	mm	50.00	71	       563
Frame#	Time	
		

71	1.400	-771.27100	-14.32029	909.52869	-808.55048	287.26767	777.28876	-676.13898	-41.04695	790.58258	-680.57526	225.18082	800.12268	-708.86755	291.27762	682.14606	-647.71515	271.25128	596.58331							-571.63934	-23.81229	492.22635	-618.55865	274.29065	550.53778	-670.97400	275.23666	486.76700	-563.90320	234.74925	506.30685	-776.65875	231.94563	921.71539	-651.82611	-72.50359	157.06656	-698.52301	159.23405	212.62163	-760.05798	229.93974	205.74767	-609.68506	-82.49300	153.39854	-882.48029	296.33026	144.85162	-666.50989	51.83739	163.20639	-595.60065	16.36319	174.67343	-552.58997	-42.92326	169.18175	-671.85370	174.72665	160.52165	-591.31555	225.14677	178.27905	-659.97778	300.83316	155.41724	-624.03455	310.32758	156.35965	-555.07410	261.29248	164.65350	-528.03583	304.25760	146.54501	-362.63498	123.73988	1549.33264	-546.66107	286.55185	1283.92542	-517.81696	-72.86765	142.88901	-790.87598	177.38089	186.75037	-531.06628	-65.71981	1293.08289	-785.61725	46.06642	176.61362	-969.90454	86.31282	958.22363	-685.61432	-64.16998	475.05014	-750.79376	-16.68825	207.43561	-875.99792	-78.69180	141.55168	-791.86340	-91.82928	789.82135				-582.95233	97.79102	1085.46704				-701.60913	67.01669	214.49599	-722.58124	-89.70929	695.46338	-632.99823	-68.05371	585.99451	-623.81415	-67.53006	543.48395	
72	1.420	-774.18872	-14.79976	901.06183	-811.01550	287.22031	770.50439	-677.89948	-39.35837	787.48071	-683.39514	225.61356	796.16260	-709.07153	291.97192	678.13165	-645.06226	271.84177	594.08429							-567.77045	-22.48250	490.98035	-615.33899	275.35764	548.59845	-667.83154	275.79205	485.21768	-560.49384	235.67685	505.17004	-780.58405	231.92613	912.32263	-651.23663	-72.05066	157.61914	-699.40967	158.81990	212.38554	-759.24042	229.63902	205.76851	-609.78766	-82.63134	153.36131	-882.50238	296.16855	144.79887	-666.47992	52.30159	162.40321	-595.39996	16.70884	174.48117	-552.55981	-42.84251	169.49460	-671.97931	174.74857	160.25610	-591.26007	225.19264	178.09593	-660.07733	300.87009	155.63251	-624.17377	310.30460	156.24435	-555.13519	261.58923	164.71930	-528.07770	304.24625	146.45256	-355.93506	123.49519	1531.20227	-542.84985	286.68939	1267.75415	-517.75531	-72.70916	142.88919	-790.61865	177.05893	186.76535	-526.85620	-65.37820	1277.08423	-785.52332	46.13559	176.91119	-973.05725	86.21296	948.97620	-681.82495	-63.11972	474.06119	-750.52728	-16.72014	207.47159	-875.95648	-78.79716	141.44162	-792.96875	-91.91179	783.40619				-583.40479	97.83362	1070.34338				-701.34290	67.39288	214.05464	-721.26605	-89.62943	691.50488	-629.55591	-66.99310	583.94965	-619.57843	-66.38807	541.58459	
73	1.440				-813.75323	287.31018	763.57806	-678.99603	-37.32829	784.53552	-685.86707	226.45726	791.86084	-709.26971	292.53378	673.74670	-642.90790	272.79553	591.90527							-564.25250	-21.25899	487.93732	-612.64459	276.59686	547.42572	-665.10760	276.96729	484.56964	-557.50983	236.54861	503.92520	-783.85492	231.67285	902.91687	-651.23163	-71.83533	157.71248	-698.19556	158.07617	212.22572	-758.98248	229.47702	205.56287	-609.96716	-82.66410	153.24475	-882.46844	296.17334	144.71791	-666.57532	52.42869	162.03490	-594.91315	17.07356	174.01743	-552.31665	-42.57449	169.59497	-672.03998	174.57463	159.79517	-590.92505	225.41768	178.02826	-660.10596	300.94852	155.53062	-624.55548	310.38007	156.54486	-555.11310	261.79752	164.93625	-528.12280	304.28763	146.42749	-349.01227	123.30160	1512.95251	-539.20093	286.21231	1251.22498	-517.85767	-72.53561	143.14777	-790.25220	176.44060	186.73283	-523.09851	-64.97722	1260.74646	-785.35828	46.37112	176.84521	-976.95081	86.09038	940.55548	-678.61627	-62.54312	473.35248	-749.95416	-16.22395	207.62515	-875.99792	-78.69180	141.55168	-794.17145	-91.43657	777.31946				-583.46283	98.19976	1055.00671				-700.82349	68.17481	213.65860	-720.68140	-89.32124	687.47430	-626.39709	-66.67293	582.17694	-615.40253	-65.52676	539.89612	
74	1.460	-576.68445	41.41199	559.18555	-815.78076	287.18521	756.25830	-681.51837	-36.86256	780.80499	-688.10596	226.96494	787.79962	-709.42651	292.50296	668.66901	-640.60205	273.59625	589.40594							-560.88196	-19.35559	486.63272	-609.79291	277.03375	545.20276	-662.26154	277.62137	483.36685	-554.63483	236.70825	502.28784	-786.50232	231.86105	893.11835	-651.15717	-71.91341	157.68816	-698.39410	158.29471	211.70065	-758.71655	229.10098	205.54936	-609.69690	-82.49525	153.37592	-882.62311	296.19019	144.73373	-666.65912	52.66409	161.50687	-594.91516	17.59054	173.51961	-552.33368	-42.10829	170.04306	-672.11255	174.33118	159.44795	-590.84607	225.34453	177.98351	-660.14728	300.91937	155.72438	-624.58350	310.21277	156.87614	-555.08142	261.91425	165.04520	-528.02759	304.34650	146.51938	-342.64117	123.06190	1494.59082	-535.32239	286.07980	1234.61548	-517.75531	-72.70916	142.88919	-790.19537	176.22720	186.91568	-519.54694	-64.45578	1244.25891	-785.26611	46.63645	176.62622	-979.92517	85.95979	930.91937	-675.34027	-63.08611	472.68509	-749.28595	-16.17073	207.51584	-876.05573	-78.76508	141.37221	-795.51025	-91.46783	771.16412				-583.37762	98.09933	1039.65466				-700.43225	68.58251	213.54056	-719.80463	-88.91264	683.52448	-622.57825	-66.00864	580.17487	-611.85870	-64.77934	538.14362	
75	1.480	-573.97870	43.22687	558.06366	-818.14532	287.18964	749.59479	-682.95386	-35.25500	777.52106	-691.16571	227.05464	783.84998	-709.17389	292.81757	664.88245	-638.32269	273.84271	586.84766							-557.96179	-18.52238	485.70813	-606.36859	278.19217	544.61755	-659.58636	278.16092	481.73431	-552.28381	237.62399	500.71552	-791.73816	232.05324	885.57867	-650.79559	-71.50580	158.14577	-697.77649	157.59943	211.83351	-758.63629	228.72105	205.91687	-609.70117	-82.66505	153.59431	-882.50006	296.18253	144.69447	-666.72852	52.80614	161.07382	-594.90723	17.82518	173.08194	-552.36804	-42.05952	169.93022	-671.63104	174.26688	159.49596	-590.70197	225.25552	177.85158	-660.17426	300.70251	156.05121	-624.61060	309.83588	156.48857	-555.11835	262.02722	165.09149	-528.02759	304.34650	146.51938	-336.40494	123.62331	1475.70605	-531.54462	286.25540	1218.41992	-517.75531	-72.70916	142.88919	-790.04846	175.89267	187.21100	-515.89496	-63.98764	1227.67664	-785.10559	46.83880	176.85316	-983.55267	85.82170	922.20978	-672.16595	-62.39806	471.56567	-749.25214	-16.05240	207.60576	-876.00275	-78.74174	141.50209	-797.63586	-91.74148	765.58960										-699.92505	69.19176	213.35307	-719.09308	-88.16895	679.03943	-619.80005	-65.42440	578.39056	-608.51489	-64.61229	537.13855	
76	1.500	-572.38672	43.67284	556.64771	-819.74231	287.33109	742.74988	-685.23682	-34.28734	773.79572	-693.66083	226.61543	779.71057	-708.82654	293.65387	660.73340	-636.10468	274.74347	584.35748	-583.09094	98.21507	1008.71863				-555.46729	-17.54679	484.20331	-604.04999	278.79987	542.75226	-657.09491	278.52029	480.46774	-549.52136	238.25121	498.91739	-792.68176	230.81270	873.29901	-650.75189	-71.45448	158.18451	-697.46356	157.47655	211.75946	-758.52649	228.65808	206.05894	-610.11346	-82.45625	153.28857	-882.41229	296.21234	144.77406	-666.27704	53.31128	160.74088	-594.82086	17.90417	172.89424	-552.25177	-41.94908	170.07527	-671.34137	173.96156	159.05115	-590.63867	225.09061	177.65144	-660.28851	300.71860	156.40460	-624.68872	309.53427	156.99936	-555.34045	261.74506	164.94858	-528.03528	304.40680	146.81578	-330.28479	123.39025	1457.11975	-527.49292	286.21527	1201.45032	-517.86456	-72.67445	142.77979	-789.57288	175.48775	186.78873	-512.51697	-63.25140	1211.14282	-785.24664	47.16730	176.89871	-986.63416	86.01962	913.16217	-669.57629	-61.96666	470.54678	-748.38251	-16.39856	208.35388	-876.00275	-78.74174	141.50209	-799.49695	-91.29926	758.89020										-699.75995	69.60730	213.02582	-719.32135	-88.39517	675.01794	-617.16321	-65.77863	576.78052	-605.61176	-64.31084	535.90576	
77	1.520	-570.42017	44.35861	555.51477	-821.12317	287.67166	736.14026	-687.65894	-34.08445	769.88953	-696.01349	226.16206	774.96033	-708.21869	294.57523	657.42261	-633.70422	275.50888	581.95453				-553.62958	176.13852	556.38959	-553.16632	-17.02135	483.06967	-600.88623	279.09998	540.88507	-654.81598	278.15808	478.99579	-546.45740	238.19577	498.21411	-794.18115	229.71635	861.47797	-650.54132	-70.95571	158.49702	-696.98187	157.17159	211.39702	-758.18030	228.41151	206.01263	-610.55219	-82.55798	154.09712	-882.42224	296.21420	144.80258	-666.17920	53.49966	159.83780	-594.49054	18.35028	172.44101	-552.27039	-41.60148	170.05122	-671.50232	173.73497	158.78333	-590.70013	224.90318	177.58099	-660.25049	300.60358	156.47653	-624.95508	309.58411	157.01610	-555.34601	261.90054	165.09384	-528.18402	304.70187	146.95001	-324.83774	123.41989	1438.17334	-523.42255	286.00366	1184.42432	-517.85168	-72.47694	142.86914	-789.78241	175.27969	187.26985	-508.49442	-62.87207	1194.92200	-785.15222	47.62067	176.82619	-989.21375	86.84580	903.44403	-666.81195	-61.82330	469.89481	-748.12122	-15.23062	208.07736	-876.07831	-78.80435	141.53267	-801.11938	-91.06937	752.21600										-700.40485	70.01167	212.99675	-718.81915	-87.72490	670.63818	-614.66003	-66.26516	574.94763	-602.69745	-63.10744	534.47308	
78	1.540	-567.40100	45.66912	554.81769	-822.15265	287.65356	728.68622	-689.81116	-33.72153	765.95453	-698.38568	225.60040	770.41675	-707.20099	295.05115	652.25629	-631.20056	275.65619	579.03302	-583.65308	98.42784	977.36096	-550.32928	175.94904	555.51160	-551.09564	-16.84773	481.85852	-597.98224	280.05652	539.52759	-651.82104	279.27109	478.39487	-543.38550	237.96977	496.18307	-796.78680	230.98329	853.30280	-650.43481	-70.76159	158.82335	-695.92010	157.75253	210.36420	-757.97986	228.16669	206.19116	-610.60229	-82.39117	154.17035	-882.52844	296.12085	144.67358	-666.30652	53.74508	159.63966	-594.37537	18.93954	171.93826	-552.35767	-41.17506	169.46062	-671.43781	174.08603	158.41199	-590.71582	224.69275	177.49623	-660.23889	300.51242	156.49823	-624.92999	309.41281	157.31410	-555.18054	261.73343	165.10838	-528.17725	304.56635	146.65282	-319.44235	123.88540	1419.44543	-519.24945	285.95944	1167.37000	-517.87280	-72.50204	142.85596	-789.71497	175.11613	187.36456	-504.91425	-61.94860	1178.36206	-784.65607	47.99609	176.86296	-991.40131	87.54514	894.03595	-664.22827	-61.68936	468.91354	-748.12738	-14.91206	207.93538	-875.99792	-78.69180	141.55168	-802.94769	-91.57888	746.67041										-700.54779	71.32291	213.42960	-718.18054	-87.56663	666.26318	-611.31152	-63.90463	571.88135	-599.28680	-63.33217	533.48749	
